<svg xmlns="http://www.w3.org/2000/svg" viewBox="0 0 720 360"><rect width="720" height="360" rx="32" fill="#EEF7F7"/><ellipse cx="385" cy="313" rx="255" ry="18" fill="#DDECEC"/><circle cx="380" cy="112" r="40" fill="#F3C39F"/><path d="M344 103c11-36 61-43 79-11-25-7-49-1-79 11z" fill="#6A4031"/><path d="M318 161c37-17 88-16 124 3l-16 124H328z" fill="#D94A50"/><path d="M343 185c-26 21-43 49-51 84" fill="none" stroke="#F3C39F" stroke-width="21" stroke-linecap="round"/><path d="M416 185c27 20 44 48 52 84" fill="none" stroke="#F3C39F" stroke-width="21" stroke-linecap="round"/><path d="M220 90c0-30 24-54 54-54s54 24 54 54v45c0 30-24 54-54 54s-54-24-54-54z" fill="#FFFFFF" stroke="#087F83" stroke-width="8"/><path d="M248 87h52M274 61v52" stroke="#087F83" stroke-width="10" stroke-linecap="round"/><path d="M192 241h117" stroke="#2D8EBA" stroke-width="22" stroke-linecap="round"/><path d="M193 241c-1 37 27 65 64 65" fill="none" stroke="#2D8EBA" stroke-width="18" stroke-linecap="round"/><path d="M530 78v199" stroke="#087F83" stroke-width="12" stroke-linecap="round"/><path d="M500 107h60M500 145h60M500 183h60M500 221h60" stroke="#087F83" stroke-width="8" stroke-linecap="round"/><path d="M572 107c28 0 48 20 48 48v70" fill="none" stroke="#2D8EBA" stroke-width="12" stroke-linecap="round"/><path d="M604 221l16 20 17-20" fill="none" stroke="#2D8EBA" stroke-width="9" stroke-linecap="round" stroke-linejoin="round"/></svg>