<svg xmlns="http://www.w3.org/2000/svg" viewBox="0 0 720 360"><rect width="720" height="360" rx="30" fill="#F2F8F8"/><ellipse cx="400" cy="312" rx="260" ry="20" fill="#DDEBEC"/><circle cx="505" cy="202" r="34" fill="#F2BE99"/><path d="M455 220h-225c-31 0-54 23-54 52v18h322z" fill="#D94A4A"/><path d="M234 290h-92" stroke="#173B4A" stroke-width="28" stroke-linecap="round"/><path d="M449 290h118" stroke="#173B4A" stroke-width="28" stroke-linecap="round"/><circle cx="250" cy="87" r="35" fill="#F2BE99"/><path d="M211 72c9-37 71-42 82 0-16-13-56-15-82 0z" fill="#8A5637"/><path d="M195 226c7-86 24-112 55-112s54 29 64 111" fill="#2D8EBA"/><path d="M221 151c-25 29-37 59-35 94" fill="none" stroke="#F2BE99" stroke-width="19" stroke-linecap="round"/><path d="M278 151c36 18 68 42 91 75" fill="none" stroke="#F2BE99" stroke-width="19" stroke-linecap="round"/><path d="M370 226c29 3 56-2 78-15" fill="none" stroke="#F2BE99" stroke-width="18" stroke-linecap="round"/><path d="M463 177c-9 8-14 18-15 31" fill="none" stroke="#087F83" stroke-width="6" stroke-linecap="round"/><path d="M470 170c-13 10-21 24-22 39" fill="none" stroke="#087F83" stroke-width="4" stroke-linecap="round"/><circle cx="590" cy="82" r="45" fill="#E4F4F2"/><path d="M570 83l14 14 28-34" fill="none" stroke="#087F83" stroke-width="10" stroke-linecap="round" stroke-linejoin="round"/><text x="590" y="145" text-anchor="middle" font-family="sans-serif" font-size="18" font-weight="700" fill="#075E68">RÉACTION + RESPIRATION</text></svg>