<svg xmlns="http://www.w3.org/2000/svg" viewBox="0 0 720 360"><rect width="720" height="360" rx="32" fill="#EEF7F7"/><ellipse cx="424" cy="307" rx="238" ry="17" fill="#DDECEC"/><circle cx="504" cy="235" r="28" fill="#F3C39F"/><path d="M308 251h205" stroke="#D94A50" stroke-width="41" stroke-linecap="round"/><circle cx="239" cy="84" r="30" fill="#F3C39F"/><path d="M204 76c9-31 54-38 72-8-18-8-42-5-72 8z" fill="#6A4031"/><path d="M187 124c37-22 77-20 106 7l-8 105-107 4z" fill="#168B94"/><path d="M212 155c20 33 51 59 92 76M279 153c24 31 56 54 96 68" fill="none" stroke="#F3C39F" stroke-width="19" stroke-linecap="round"/><path d="M374 221c22-7 43-7 64 0" fill="none" stroke="#F3C39F" stroke-width="17" stroke-linecap="round"/><rect x="535" y="80" width="103" height="126" rx="18" fill="#FFFFFF" stroke="#166B72" stroke-width="8"/><path d="M586 103l-21 38h23l-11 35 36-51h-22l12-22z" fill="#D92D36"/><path d="M532 218c-27 5-50 19-67 40" fill="none" stroke="#166B72" stroke-width="7" stroke-linecap="round"/><rect x="433" y="230" width="40" height="49" rx="8" fill="#FDEBEC" stroke="#D92D36" stroke-width="5"/><rect x="496" y="230" width="40" height="49" rx="8" fill="#FDEBEC" stroke="#D92D36" stroke-width="5"/><path d="M453 230v-13M516 230v-13" stroke="#D92D36" stroke-width="5"/></svg>