<svg xmlns="http://www.w3.org/2000/svg" viewBox="0 0 720 360"><rect width="720" height="360" rx="32" fill="#EEF7F7"/><ellipse cx="376" cy="314" rx="258" ry="18" fill="#DDECEC"/><circle cx="360" cy="110" r="35" fill="#F4C7A5"/><path d="M322 100c8-35 65-41 78-1-17-12-53-15-78 1z" fill="#6A4031"/><path d="M302 151c24-24 92-24 116 0l21 112H282z" fill="#168B94"/><path d="M308 179l-50 57M414 179l49 57" stroke="#F4C7A5" stroke-width="20" stroke-linecap="round"/><path d="M299 261l-49 46M426 261l50 46" stroke="#173B4A" stroke-width="25" stroke-linecap="round"/><path d="M103 91h134v166H103z" rx="24" fill="#fff" stroke="#D5E5E6" stroke-width="5"/><path d="M128 121h84M128 148h63" stroke="#087F83" stroke-width="9" stroke-linecap="round"/><path d="M142 191h57" stroke="#D92D36" stroke-width="11" stroke-linecap="round"/><path d="M548 74v183" stroke="#087F83" stroke-width="10" stroke-linecap="round"/><path d="M521 104l27-30 27 30M521 227l27 30 27-30" fill="none" stroke="#087F83" stroke-width="10" stroke-linecap="round" stroke-linejoin="round"/><path d="M492 283h118" stroke="#D92D36" stroke-width="10" stroke-linecap="round"/><circle cx="635" cy="112" r="35" fill="#fff" stroke="#D92D36" stroke-width="7"/><path d="M635 92v25M635 132v2" stroke="#D92D36" stroke-width="8" stroke-linecap="round"/></svg>