<svg xmlns="http://www.w3.org/2000/svg" viewBox="0 0 720 360"><rect width="720" height="360" rx="32" fill="#EEF7F7"/><ellipse cx="420" cy="315" rx="230" ry="18" fill="#DCEBEC"/><circle cx="480" cy="105" r="34" fill="#F3C39F"/><path d="M443 91c8-29 33-42 58-33 16 6 25 20 25 38-23-13-48-12-83-5z" fill="#6A4031"/><path d="M420 226c6-77 26-109 60-109s55 32 62 109l-43 25-80-12z" fill="#D94A50"/><path d="M454 151c-18 25-27 51-26 79" fill="none" stroke="#F3C39F" stroke-width="20" stroke-linecap="round"/><circle cx="229" cy="91" r="34" fill="#F3C39F"/><path d="M192 78c8-31 31-44 56-35 17 6 27 21 26 40-22-14-48-14-82-5z" fill="#6A4031"/><path d="M173 224c8-77 28-109 59-109 32 0 54 32 61 109l-43 26-78-13z" fill="#168B94"/><path d="M260 151c35 20 64 45 87 76" fill="none" stroke="#F3C39F" stroke-width="20" stroke-linecap="round"/><path d="M347 227c28 1 52-5 72-18" fill="none" stroke="#F3C39F" stroke-width="18" stroke-linecap="round"/><path d="M531 132c21 6 38 19 49 37" fill="none" stroke="#D92D36" stroke-width="7" stroke-linecap="round"/><path d="M566 139l16 31-34-2" fill="#D92D36"/><circle cx="604" cy="90" r="44" fill="#fff" stroke="#D92D36" stroke-width="7"/><path d="M604 65v30" stroke="#D92D36" stroke-width="9" stroke-linecap="round"/><circle cx="604" cy="112" r="5" fill="#D92D36"/></svg>