<svg xmlns="http://www.w3.org/2000/svg" viewBox="0 0 320 220"><rect width="320" height="220" rx="28" fill="#F2FAFA"/><ellipse cx="164" cy="184" rx="104" ry="14" fill="#DCEBEC"/><circle cx="94" cy="114" r="25" fill="#F1C7A5"/><path d="M119 122c39 3 69 18 99 44" fill="none" stroke="#087F83" stroke-width="30" stroke-linecap="round"/><path d="M151 147l-51 31M181 157l46 25" stroke="#172126" stroke-width="14" stroke-linecap="round"/><path d="M73 91c12-16 34-18 47-3" fill="none" stroke="#172126" stroke-width="12" stroke-linecap="round"/><path d="M58 130l-25-8M61 145l-27 8M234 139l30-17" stroke="#D92D36" stroke-width="5" stroke-linecap="round"/><rect x="62" y="160" width="58" height="20" rx="10" fill="#D7E9EA"/><path d="M75 160c8-18 25-22 36 0" fill="#FFF" stroke="#087F83" stroke-width="4"/><circle cx="267" cy="54" r="28" fill="#E7F5F5"/><path d="M267 38v32M251 54h32" stroke="#087F83" stroke-width="7" stroke-linecap="round"/></svg>